<svg xmlns="http://www.w3.org/2000/svg" xmlns:xlink="http://www.w3.org/1999/xlink" width="137" zoomAndPan="magnify" viewBox="0 0 102.75 30.000001" height="40" preserveAspectRatio="xMidYMid meet" version="1.0"><defs><g/><clipPath id="0057a42fe3"><path d="M 1.535156 0 L 100.972656 0 L 100.972656 29.03125 L 1.535156 29.03125 Z M 1.535156 0 " clip-rule="nonzero"/></clipPath></defs><g clip-path="url(#0057a42fe3)"><path fill="#ffffff" d="M 1.535156 0 L 101.214844 0 L 101.214844 36.378906 L 1.535156 36.378906 Z M 1.535156 0 " fill-opacity="1" fill-rule="nonzero"/><path fill="#ffffff" d="M 1.535156 0 L 101.214844 0 L 101.214844 29.101562 L 1.535156 29.101562 Z M 1.535156 0 " fill-opacity="1" fill-rule="nonzero"/><path fill="#ffffff" d="M 1.535156 0 L 101.214844 0 L 101.214844 29.101562 L 1.535156 29.101562 Z M 1.535156 0 " fill-opacity="1" fill-rule="nonzero"/></g><g fill="#000000" fill-opacity="1"><g transform="translate(13.232142, 16.204898)"><g><path d="M 4.835938 0 L 6.304688 0 L 3.789062 -6.222656 L 2.515625 -6.222656 L 0.0703125 0 L 1.503906 0 L 1.929688 -1.171875 L 4.402344 -1.171875 Z M 3.164062 -4.578125 L 3.984375 -2.347656 L 2.347656 -2.347656 Z M 3.164062 -4.578125 "/></g></g></g><g fill="#000000" fill-opacity="1"><g transform="translate(19.615164, 16.204898)"><g><path d="M 4.453125 -3.28125 C 4.890625 -3.582031 5.15625 -4.082031 5.15625 -4.613281 C 5.15625 -5.53125 4.355469 -6.214844 3.28125 -6.214844 L 0.710938 -6.214844 L 0.710938 0.0078125 L 3.351562 0.0078125 C 4.4375 0.0078125 5.316406 -0.792969 5.316406 -1.785156 C 5.316406 -2.453125 4.996094 -2.988281 4.453125 -3.28125 Z M 3.851562 -4.410156 C 3.851562 -4.019531 3.574219 -3.742188 3.15625 -3.742188 L 2.027344 -3.742188 L 2.027344 -5.066406 L 3.15625 -5.066406 C 3.574219 -5.066406 3.851562 -4.800781 3.851562 -4.410156 Z M 3.226562 -1.226562 L 2.027344 -1.226562 L 2.027344 -2.621094 L 3.226562 -2.621094 C 3.671875 -2.621094 3.964844 -2.328125 3.964844 -1.929688 C 3.964844 -1.519531 3.671875 -1.226562 3.226562 -1.226562 Z M 3.226562 -1.226562 "/></g></g></g><g fill="#000000" fill-opacity="1"><g transform="translate(25.322548, 16.204898)"><g><path d="M 4.402344 -6.222656 L 4.402344 -3.824219 L 2.054688 -3.824219 L 2.054688 -6.222656 L 0.710938 -6.222656 L 0.710938 0 L 2.054688 0 L 2.054688 -2.570312 L 4.402344 -2.570312 L 4.402344 0 L 5.742188 0 L 5.742188 -6.222656 Z M 4.402344 -6.222656 "/></g></g></g><g fill="#000000" fill-opacity="1"><g transform="translate(31.785581, 16.204898)"><g><path d="M 0.710938 0 L 2.054688 0 L 2.054688 -6.222656 L 0.710938 -6.222656 Z M 0.710938 0 "/></g></g></g><g fill="#000000" fill-opacity="1"><g transform="translate(34.559262, 16.204898)"><g><path d="M 4.648438 -6.222656 L 4.648438 -2.425781 L 1.921875 -6.222656 L 0.710938 -6.222656 L 0.710938 0 L 2.027344 0 L 2.027344 -3.886719 L 4.84375 0 L 5.976562 0 L 5.976562 -6.222656 Z M 4.648438 -6.222656 "/></g></g></g><g fill="#000000" fill-opacity="1"><g transform="translate(41.244544, 16.204898)"><g><path d="M 4.835938 0 L 6.304688 0 L 3.789062 -6.222656 L 2.515625 -6.222656 L 0.0703125 0 L 1.503906 0 L 1.929688 -1.171875 L 4.402344 -1.171875 Z M 3.164062 -4.578125 L 3.984375 -2.347656 L 2.347656 -2.347656 Z M 3.164062 -4.578125 "/></g></g></g><g fill="#000000" fill-opacity="1"><g transform="translate(47.627565, 16.204898)"><g><path d="M 7.71875 -6.222656 L 6.515625 -2.089844 L 4.84375 -6.152344 L 4.390625 -6.152344 L 2.757812 -2.082031 L 1.527344 -6.222656 L 0.105469 -6.222656 L 2.0625 0 L 3.261719 0 L 4.613281 -3.484375 L 6 0 L 7.203125 0 L 9.121094 -6.222656 Z M 7.71875 -6.222656 "/></g></g></g><g fill="#000000" fill-opacity="1"><g transform="translate(56.882054, 16.204898)"><g/></g></g><g fill="#000000" fill-opacity="1"><g transform="translate(59.006763, 16.204898)"><g><path d="M 4.132812 0 L 5.636719 0 L 4.257812 -2.347656 C 4.953125 -2.683594 5.398438 -3.34375 5.398438 -4.160156 C 5.398438 -5.359375 4.464844 -6.222656 3.21875 -6.222656 L 0.710938 -6.222656 L 0.710938 0 L 2.054688 0 L 2.054688 -2.117188 L 2.917969 -2.117188 Z M 2.054688 -4.980469 L 3.128906 -4.980469 C 3.699219 -4.980469 4.027344 -4.632812 4.027344 -4.167969 C 4.027344 -3.699219 3.699219 -3.359375 3.128906 -3.359375 L 2.054688 -3.359375 Z M 2.054688 -4.980469 "/></g></g></g><g fill="#000000" fill-opacity="1"><g transform="translate(64.883051, 16.204898)"><g><path d="M 4.835938 0 L 6.304688 0 L 3.789062 -6.222656 L 2.515625 -6.222656 L 0.0703125 0 L 1.503906 0 L 1.929688 -1.171875 L 4.402344 -1.171875 Z M 3.164062 -4.578125 L 3.984375 -2.347656 L 2.347656 -2.347656 Z M 3.164062 -4.578125 "/></g></g></g><g fill="#000000" fill-opacity="1"><g transform="translate(71.266073, 16.204898)"><g><path d="M 4.996094 -6.222656 L 0.1875 -6.222656 L 0.1875 -4.96875 L 1.921875 -4.96875 L 1.921875 0 L 3.261719 0 L 3.261719 -4.96875 L 4.996094 -4.96875 Z M 4.996094 -6.222656 "/></g></g></g><g fill="#000000" fill-opacity="1"><g transform="translate(76.457831, 16.204898)"><g><path d="M 4.835938 0 L 6.304688 0 L 3.789062 -6.222656 L 2.515625 -6.222656 L 0.0703125 0 L 1.503906 0 L 1.929688 -1.171875 L 4.402344 -1.171875 Z M 3.164062 -4.578125 L 3.984375 -2.347656 L 2.347656 -2.347656 Z M 3.164062 -4.578125 "/></g></g></g><g fill="#000000" fill-opacity="1"><g transform="translate(82.840853, 16.204898)"><g><path d="M 4.648438 -6.222656 L 4.648438 -2.425781 L 1.921875 -6.222656 L 0.710938 -6.222656 L 0.710938 0 L 2.027344 0 L 2.027344 -3.886719 L 4.84375 0 L 5.976562 0 L 5.976562 -6.222656 Z M 4.648438 -6.222656 "/></g></g></g></svg>