<svg xmlns="http://www.w3.org/2000/svg" xmlns:xlink="http://www.w3.org/1999/xlink" width="500" zoomAndPan="magnify" viewBox="0 0 375 374.999991" height="500" preserveAspectRatio="xMidYMid meet" version="1.0"><defs><g/></defs><rect x="-37.5" width="450" fill="#ffffff" y="-37.499999" height="449.999989" fill-opacity="1"/><rect x="-37.5" width="450" fill="#ffffff" y="-37.499999" height="449.999989" fill-opacity="1"/><rect x="-37.5" width="450" fill="#ffffff" y="-37.499999" height="449.999989" fill-opacity="1"/><g fill="#000000" fill-opacity="1"><g transform="translate(0.0000045, 212.249652)"><g><path d="M 24.65625 -6.21875 L 11.109375 -6.21875 L 8.59375 0 L -0.640625 0 L 13.484375 -32.015625 L 22.40625 -32.015625 L 36.59375 0 L 27.171875 0 Z M 22 -12.890625 L 17.875 -23.140625 L 13.765625 -12.890625 Z M 22 -12.890625 "/></g></g></g><g fill="#000000" fill-opacity="1"><g transform="translate(35.953009, 212.249652)"><g><path d="M 18.390625 -25.203125 C 20.640625 -25.203125 22.6875 -24.679688 24.53125 -23.640625 C 26.375 -22.609375 27.835938 -21.125 28.921875 -19.1875 C 30.003906 -17.25 30.546875 -15 30.546875 -12.4375 C 30.546875 -9.875 30.003906 -7.617188 28.921875 -5.671875 C 27.835938 -3.722656 26.375 -2.222656 24.53125 -1.171875 C 22.6875 -0.117188 20.640625 0.40625 18.390625 0.40625 C 15.117188 0.40625 12.675781 -0.550781 11.0625 -2.46875 L 11.0625 0 L 2.796875 0 L 2.796875 -33.9375 L 11.484375 -33.9375 L 11.484375 -22.640625 C 13.160156 -24.347656 15.460938 -25.203125 18.390625 -25.203125 Z M 16.5625 -6.5 C 18.082031 -6.5 19.328125 -7.023438 20.296875 -8.078125 C 21.273438 -9.128906 21.765625 -10.582031 21.765625 -12.4375 C 21.765625 -14.269531 21.273438 -15.703125 20.296875 -16.734375 C 19.328125 -17.773438 18.082031 -18.296875 16.5625 -18.296875 C 15.03125 -18.296875 13.773438 -17.773438 12.796875 -16.734375 C 11.828125 -15.703125 11.34375 -14.269531 11.34375 -12.4375 C 11.34375 -10.582031 11.828125 -9.128906 12.796875 -8.078125 C 13.773438 -7.023438 15.03125 -6.5 16.5625 -6.5 Z M 16.5625 -6.5 "/></g></g></g><g fill="#000000" fill-opacity="1"><g transform="translate(67.743514, 212.249652)"><g><path d="M 18.9375 -25.203125 C 22.007812 -25.203125 24.484375 -24.285156 26.359375 -22.453125 C 28.234375 -20.628906 29.171875 -17.867188 29.171875 -14.171875 L 29.171875 0 L 20.484375 0 L 20.484375 -12.765625 C 20.484375 -16.148438 19.128906 -17.84375 16.421875 -17.84375 C 14.921875 -17.84375 13.722656 -17.351562 12.828125 -16.375 C 11.929688 -15.394531 11.484375 -13.929688 11.484375 -11.984375 L 11.484375 0 L 2.796875 0 L 2.796875 -33.9375 L 11.484375 -33.9375 L 11.484375 -22.5 C 12.421875 -23.382812 13.53125 -24.054688 14.8125 -24.515625 C 16.09375 -24.972656 17.46875 -25.203125 18.9375 -25.203125 Z M 18.9375 -25.203125 "/></g></g></g><g fill="#000000" fill-opacity="1"><g transform="translate(99.579769, 212.249652)"><g><path d="M 2.796875 -24.78125 L 11.484375 -24.78125 L 11.484375 0 L 2.796875 0 Z M 7.140625 -27.53125 C 5.554688 -27.53125 4.273438 -27.972656 3.296875 -28.859375 C 2.316406 -29.742188 1.828125 -30.84375 1.828125 -32.15625 C 1.828125 -33.46875 2.316406 -34.5625 3.296875 -35.4375 C 4.273438 -36.320312 5.554688 -36.765625 7.140625 -36.765625 C 8.722656 -36.765625 10 -36.34375 10.96875 -35.5 C 11.945312 -34.664062 12.4375 -33.59375 12.4375 -32.28125 C 12.4375 -30.914062 11.945312 -29.78125 10.96875 -28.875 C 10 -27.976562 8.722656 -27.53125 7.140625 -27.53125 Z M 7.140625 -27.53125 "/></g></g></g><g fill="#000000" fill-opacity="1"><g transform="translate(113.896928, 212.249652)"><g><path d="M 18.9375 -25.203125 C 22.007812 -25.203125 24.484375 -24.285156 26.359375 -22.453125 C 28.234375 -20.628906 29.171875 -17.867188 29.171875 -14.171875 L 29.171875 0 L 20.484375 0 L 20.484375 -12.765625 C 20.484375 -16.148438 19.128906 -17.84375 16.421875 -17.84375 C 14.921875 -17.84375 13.722656 -17.351562 12.828125 -16.375 C 11.929688 -15.394531 11.484375 -13.929688 11.484375 -11.984375 L 11.484375 0 L 2.796875 0 L 2.796875 -24.78125 L 11.0625 -24.78125 L 11.0625 -22.09375 C 12.039062 -23.09375 13.203125 -23.859375 14.546875 -24.390625 C 15.890625 -24.929688 17.351562 -25.203125 18.9375 -25.203125 Z M 18.9375 -25.203125 "/></g></g></g><g fill="#000000" fill-opacity="1"><g transform="translate(145.733182, 212.249652)"><g><path d="M 13.359375 -25.203125 C 17.472656 -25.203125 20.609375 -24.265625 22.765625 -22.390625 C 24.929688 -20.515625 26.015625 -17.640625 26.015625 -13.765625 L 26.015625 0 L 17.921875 0 L 17.921875 -3.203125 C 16.671875 -0.796875 14.234375 0.40625 10.609375 0.40625 C 8.691406 0.40625 7.03125 0.0703125 5.625 -0.59375 C 4.21875 -1.257812 3.15625 -2.164062 2.4375 -3.3125 C 1.726562 -4.457031 1.375 -5.757812 1.375 -7.21875 C 1.375 -9.570312 2.269531 -11.394531 4.0625 -12.6875 C 5.863281 -13.988281 8.640625 -14.640625 12.390625 -14.640625 L 17.328125 -14.640625 C 17.179688 -17.253906 15.429688 -18.5625 12.078125 -18.5625 C 10.890625 -18.5625 9.679688 -18.367188 8.453125 -17.984375 C 7.234375 -17.609375 6.195312 -17.085938 5.34375 -16.421875 L 2.421875 -22.3125 C 3.796875 -23.226562 5.460938 -23.9375 7.421875 -24.4375 C 9.390625 -24.945312 11.367188 -25.203125 13.359375 -25.203125 Z M 13.03125 -5.078125 C 14.039062 -5.078125 14.925781 -5.320312 15.6875 -5.8125 C 16.445312 -6.300781 16.992188 -7.015625 17.328125 -7.953125 L 17.328125 -10.109375 L 13.578125 -10.109375 C 11.046875 -10.109375 9.78125 -9.269531 9.78125 -7.59375 C 9.78125 -6.832031 10.070312 -6.222656 10.65625 -5.765625 C 11.238281 -5.304688 12.03125 -5.078125 13.03125 -5.078125 Z M 13.03125 -5.078125 "/></g></g></g><g fill="#000000" fill-opacity="1"><g transform="translate(174.459, 212.249652)"><g><path d="M 43.859375 -24.78125 L 35.03125 0 L 26.625 0 L 21.953125 -13.484375 L 17.109375 0 L 8.6875 0 L -0.140625 -24.78125 L 8.09375 -24.78125 L 13.171875 -9.78125 L 18.4375 -24.78125 L 25.84375 -24.78125 L 30.96875 -9.65625 L 36.21875 -24.78125 Z M 43.859375 -24.78125 "/></g></g></g><g fill="#000000" fill-opacity="1"><g transform="translate(218.188107, 212.249652)"><g/></g></g><g fill="#000000" fill-opacity="1"><g transform="translate(231.498953, 212.249652)"><g><path d="M 17.203125 -8.5 L 12.25 -8.5 L 12.25 0 L 3.203125 0 L 3.203125 -32.015625 L 17.84375 -32.015625 C 20.738281 -32.015625 23.25 -31.535156 25.375 -30.578125 C 27.507812 -29.617188 29.15625 -28.242188 30.3125 -26.453125 C 31.476562 -24.671875 32.0625 -22.578125 32.0625 -20.171875 C 32.0625 -17.847656 31.519531 -15.828125 30.4375 -14.109375 C 29.351562 -12.390625 27.804688 -11.039062 25.796875 -10.0625 L 32.703125 0 L 23 0 Z M 22.90625 -20.171875 C 22.90625 -21.660156 22.429688 -22.816406 21.484375 -23.640625 C 20.546875 -24.460938 19.144531 -24.875 17.28125 -24.875 L 12.25 -24.875 L 12.25 -15.5 L 17.28125 -15.5 C 19.144531 -15.5 20.546875 -15.898438 21.484375 -16.703125 C 22.429688 -17.515625 22.90625 -18.671875 22.90625 -20.171875 Z M 22.90625 -20.171875 "/></g></g></g><g fill="#000000" fill-opacity="1"><g transform="translate(265.34785, 212.249652)"><g><path d="M 13.359375 -25.203125 C 17.472656 -25.203125 20.609375 -24.265625 22.765625 -22.390625 C 24.929688 -20.515625 26.015625 -17.640625 26.015625 -13.765625 L 26.015625 0 L 17.921875 0 L 17.921875 -3.203125 C 16.671875 -0.796875 14.234375 0.40625 10.609375 0.40625 C 8.691406 0.40625 7.03125 0.0703125 5.625 -0.59375 C 4.21875 -1.257812 3.15625 -2.164062 2.4375 -3.3125 C 1.726562 -4.457031 1.375 -5.757812 1.375 -7.21875 C 1.375 -9.570312 2.269531 -11.394531 4.0625 -12.6875 C 5.863281 -13.988281 8.640625 -14.640625 12.390625 -14.640625 L 17.328125 -14.640625 C 17.179688 -17.253906 15.429688 -18.5625 12.078125 -18.5625 C 10.890625 -18.5625 9.679688 -18.367188 8.453125 -17.984375 C 7.234375 -17.609375 6.195312 -17.085938 5.34375 -16.421875 L 2.421875 -22.3125 C 3.796875 -23.226562 5.460938 -23.9375 7.421875 -24.4375 C 9.390625 -24.945312 11.367188 -25.203125 13.359375 -25.203125 Z M 13.03125 -5.078125 C 14.039062 -5.078125 14.925781 -5.320312 15.6875 -5.8125 C 16.445312 -6.300781 16.992188 -7.015625 17.328125 -7.953125 L 17.328125 -10.109375 L 13.578125 -10.109375 C 11.046875 -10.109375 9.78125 -9.269531 9.78125 -7.59375 C 9.78125 -6.832031 10.070312 -6.222656 10.65625 -5.765625 C 11.238281 -5.304688 12.03125 -5.078125 13.03125 -5.078125 Z M 13.03125 -5.078125 "/></g></g></g><g fill="#000000" fill-opacity="1"><g transform="translate(294.073685, 212.249652)"><g><path d="M 19.890625 -1 C 19.160156 -0.539062 18.269531 -0.191406 17.21875 0.046875 C 16.164062 0.285156 15.046875 0.40625 13.859375 0.40625 C 10.628906 0.40625 8.144531 -0.382812 6.40625 -1.96875 C 4.664062 -3.550781 3.796875 -5.914062 3.796875 -9.0625 L 3.796875 -17.375 L 0.1875 -17.375 L 0.1875 -23.875 L 3.796875 -23.875 L 3.796875 -30.328125 L 12.484375 -30.328125 L 12.484375 -23.875 L 18.15625 -23.875 L 18.15625 -17.375 L 12.484375 -17.375 L 12.484375 -9.140625 C 12.484375 -8.265625 12.71875 -7.570312 13.1875 -7.0625 C 13.664062 -6.5625 14.300781 -6.3125 15.09375 -6.3125 C 16.101562 -6.3125 16.988281 -6.570312 17.75 -7.09375 Z M 19.890625 -1 "/></g></g></g><g fill="#000000" fill-opacity="1"><g transform="translate(314.520235, 212.249652)"><g><path d="M 13.359375 -25.203125 C 17.472656 -25.203125 20.609375 -24.265625 22.765625 -22.390625 C 24.929688 -20.515625 26.015625 -17.640625 26.015625 -13.765625 L 26.015625 0 L 17.921875 0 L 17.921875 -3.203125 C 16.671875 -0.796875 14.234375 0.40625 10.609375 0.40625 C 8.691406 0.40625 7.03125 0.0703125 5.625 -0.59375 C 4.21875 -1.257812 3.15625 -2.164062 2.4375 -3.3125 C 1.726562 -4.457031 1.375 -5.757812 1.375 -7.21875 C 1.375 -9.570312 2.269531 -11.394531 4.0625 -12.6875 C 5.863281 -13.988281 8.640625 -14.640625 12.390625 -14.640625 L 17.328125 -14.640625 C 17.179688 -17.253906 15.429688 -18.5625 12.078125 -18.5625 C 10.890625 -18.5625 9.679688 -18.367188 8.453125 -17.984375 C 7.234375 -17.609375 6.195312 -17.085938 5.34375 -16.421875 L 2.421875 -22.3125 C 3.796875 -23.226562 5.460938 -23.9375 7.421875 -24.4375 C 9.390625 -24.945312 11.367188 -25.203125 13.359375 -25.203125 Z M 13.03125 -5.078125 C 14.039062 -5.078125 14.925781 -5.320312 15.6875 -5.8125 C 16.445312 -6.300781 16.992188 -7.015625 17.328125 -7.953125 L 17.328125 -10.109375 L 13.578125 -10.109375 C 11.046875 -10.109375 9.78125 -9.269531 9.78125 -7.59375 C 9.78125 -6.832031 10.070312 -6.222656 10.65625 -5.765625 C 11.238281 -5.304688 12.03125 -5.078125 13.03125 -5.078125 Z M 13.03125 -5.078125 "/></g></g></g><g fill="#000000" fill-opacity="1"><g transform="translate(343.246053, 212.249652)"><g><path d="M 18.9375 -25.203125 C 22.007812 -25.203125 24.484375 -24.285156 26.359375 -22.453125 C 28.234375 -20.628906 29.171875 -17.867188 29.171875 -14.171875 L 29.171875 0 L 20.484375 0 L 20.484375 -12.765625 C 20.484375 -16.148438 19.128906 -17.84375 16.421875 -17.84375 C 14.921875 -17.84375 13.722656 -17.351562 12.828125 -16.375 C 11.929688 -15.394531 11.484375 -13.929688 11.484375 -11.984375 L 11.484375 0 L 2.796875 0 L 2.796875 -24.78125 L 11.0625 -24.78125 L 11.0625 -22.09375 C 12.039062 -23.09375 13.203125 -23.859375 14.546875 -24.390625 C 15.890625 -24.929688 17.351562 -25.203125 18.9375 -25.203125 Z M 18.9375 -25.203125 "/></g></g></g></svg>