<?xml version="1.0" standalone="no"?>
<!DOCTYPE svg PUBLIC "-//W3C//DTD SVG 20010904//EN"
 "http://www.w3.org/TR/2001/REC-SVG-20010904/DTD/svg10.dtd">
<svg version="1.0" xmlns="http://www.w3.org/2000/svg"
 width="500.000000pt" height="500.000000pt" viewBox="0 0 500.000000 500.000000"
 preserveAspectRatio="xMidYMid meet">

<g transform="translate(0.000000,500.000000) scale(0.100000,-0.100000)"
fill="#000000" stroke="none">
<path d="M2655 2657 c-2 -6 -8 -28 -14 -47 -16 -50 -73 -124 -123 -158 -56
-38 -125 -59 -218 -66 -121 -10 -248 -35 -316 -63 -96 -38 -139 -92 -265 -331
l-106 -202 86 0 c178 0 290 49 509 223 164 130 233 168 317 175 49 3 73 0 123
-21 l62 -25 -21 29 c-31 43 -131 129 -201 172 -75 45 -67 49 11 6 37 -21 110
-87 221 -199 91 -92 190 -186 220 -210 103 -80 260 -145 398 -164 43 -6 43 -6
30 17 -7 13 -92 160 -188 328 -158 274 -182 311 -250 379 -91 91 -264 190
-275 157z"/>
</g>
</svg>
